<svg width="25" height="20" viewBox="0 0 25 20" fill="none" xmlns="http://www.w3.org/2000/svg">
    <path
        d="M23.1875 11.1875H20.8125C20.476 11.1875 20.1942 11.0735 19.967 10.8455C19.7398 10.6175 19.6258 10.3357 19.625 9.99998C19.6242 9.66432 19.7382 9.38248 19.967 9.15448C20.1958 8.92648 20.4776 8.81248 20.8125 8.81248H23.1875C23.524 8.81248 23.8062 8.92648 24.0342 9.15448C24.2622 9.38248 24.3758 9.66432 24.375 9.99998C24.3742 10.3357 24.2602 10.6179 24.033 10.8467C23.8058 11.0755 23.524 11.1891 23.1875 11.1875ZM17.9625 15.7C18.1604 15.4229 18.4177 15.2646 18.7344 15.225C19.051 15.1854 19.3479 15.2646 19.625 15.4625L21.525 16.8875C21.8021 17.0854 21.9604 17.3427 22 17.6594C22.0396 17.976 21.9604 18.2729 21.7625 18.55C21.5646 18.8271 21.3073 18.9854 20.9906 19.025C20.674 19.0646 20.3771 18.9854 20.1 18.7875L18.2 17.3625C17.9229 17.1646 17.7646 16.9073 17.725 16.5906C17.6854 16.2739 17.7646 15.9771 17.9625 15.7ZM21.525 3.11248L19.625 4.53748C19.3479 4.7354 19.051 4.81457 18.7344 4.77498C18.4177 4.7354 18.1604 4.57707 17.9625 4.29998C17.7646 4.0229 17.6854 3.72603 17.725 3.40936C17.7646 3.09269 17.9229 2.8354 18.2 2.63748L20.1 1.21248C20.3771 1.01457 20.674 0.9354 20.9906 0.974984C21.3073 1.01457 21.5646 1.1729 21.7625 1.44998C21.9604 1.72707 22.0396 2.02394 22 2.34061C21.9604 2.65728 21.8021 2.91457 21.525 3.11248ZM4.1875 13.5625H3C2.34687 13.5625 1.78796 13.3301 1.32325 12.8654C0.858542 12.4007 0.625792 11.8414 0.625 11.1875V8.81248C0.625 8.15936 0.85775 7.60044 1.32325 7.13573C1.78875 6.67103 2.34767 6.43828 3 6.43748H7.75L11.8766 3.94373C12.2724 3.70623 12.6734 3.70623 13.0795 3.94373C13.4856 4.18123 13.6883 4.52759 13.6875 4.9828V15.0172C13.6875 15.4724 13.4844 15.8187 13.0783 16.0562C12.6722 16.2937 12.2716 16.2937 11.8766 16.0562L7.75 13.5625H6.5625V17.125C6.5625 17.4614 6.4485 17.7437 6.2205 17.9717C5.9925 18.1997 5.71067 18.3133 5.375 18.3125C5.03933 18.3117 4.7575 18.1977 4.5295 17.9705C4.3015 17.7433 4.1875 17.4614 4.1875 17.125V13.5625ZM11.3125 12.9094V7.09061L8.40313 8.81248H3V11.1875H8.40313L11.3125 12.9094ZM14.875 13.9781V6.02186C15.4094 6.49686 15.84 7.07596 16.167 7.75917C16.494 8.44238 16.657 9.18932 16.6562 9.99998C16.6555 10.8106 16.492 11.558 16.1658 12.242C15.8396 12.926 15.4094 13.5047 14.875 13.9781Z"
        fill="white" />
</svg>